<svg xmlns="http://www.w3.org/2000/svg" width="32" height="36" fill="none" viewBox="0 0 32 36"><g filter="url(#filter0_d_3063_33806)"><path fill="#85D6FF" d="M13.306 1.753a5.194 5.194 0 0 1 5.388 0l8.612 5.189C28.973 7.946 30 9.802 30 11.812v10.376c0 2.01-1.027 3.866-2.694 4.87l-8.612 5.189a5.195 5.195 0 0 1-5.388 0l-8.612-5.189C3.027 26.054 2 24.198 2 22.188V11.812c0-2.01 1.027-3.866 2.694-4.87l8.612-5.189Z"/><path fill="#1BA0E2" d="M10.75 29c9.182 0 16.625-8.507 16.625-19 0-1.074-.078-2.128-.228-3.154l.159.096C28.973 7.946 30 9.802 30 11.812v10.376c0 2.01-1.027 3.866-2.694 4.87l-8.612 5.189a5.195 5.195 0 0 1-5.388 0l-6.112-3.683C8.34 28.85 9.53 29 10.75 29Z"/><path stroke="#235D9F" stroke-linecap="round" d="M10.203 12.34H7.817M9.726 17.59H6.863M10.68 14.726H5.433M4.095 14.726H4M25.776 19.498h-.096M19 19.498h5.249M19 21.407h6.68"/><path fill="#BDE9FF" fill-rule="evenodd" d="M15.82 24.27c3.892 0 7.047-3.239 7.047-7.233 0-3.995-3.155-7.233-7.048-7.233-3.892 0-7.047 3.238-7.047 7.233 0 3.994 3.155 7.233 7.047 7.233ZM20.518 9l1.174 1.206 1.175 1.205" clip-rule="evenodd"/><path stroke="#235D9F" stroke-linecap="round" stroke-linejoin="round" stroke-width="1.5" d="m20.518 9 1.174 1.206m1.175 1.205-1.175-1.205m0 0-1.29 1.336M15.82 24.27c3.893 0 7.048-3.239 7.048-7.233 0-3.995-3.155-7.233-7.048-7.233-3.892 0-7.047 3.238-7.047 7.233 0 3.994 3.155 7.233 7.047 7.233Z"/><path fill="#235D9F" d="m18.09 21 .995-2.289c.099-.224.182-.297.182-.297v-.01s-.04.015-.182.015h-1.117v-.686H20v.558L18.811 21h-.72ZM11.053 17.267a1.982 1.982 0 0 1-.035-.346c0-1.187 1.377-1.398 1.377-1.86 0-.225-.178-.32-.343-.32-.303 0-.472.342-.472.342l-.58-.391S11.294 14 12.123 14c.522 0 1.088.301 1.088.984 0 1.002-1.284 1.195-1.306 1.609h1.355v.674h-2.207ZM13.517 16.49v-.477l1.23-1.96h.955v1.785h.379v.651h-.38v.778h-.77v-.778h-1.414Zm.794-.652h.62v-.72c0-.174.026-.359.026-.359h-.009s-.067.198-.156.333l-.481.737v.009Z"/><path fill="#235D9F" stroke="#235D9F" stroke-width=".2" d="m16.127 20.207-.017.115h.568l.013-.085.65-4.356.017-.114h-.568l-.013.085-.65 4.355Z"/><path stroke="#85D6FF" stroke-linecap="round" stroke-width=".5" d="M16.21 23.466c1.959-.134 5.874-1.688 5.874-6.831"/></g><defs><filter id="filter0_d_3063_33806" width="32" height="36" x="0" y="0" color-interpolation-filters="sRGB" filterUnits="userSpaceOnUse"><feFlood flood-opacity="0" result="BackgroundImageFix"/><feColorMatrix in="SourceAlpha" result="hardAlpha" type="matrix" values="0 0 0 0 0 0 0 0 0 0 0 0 0 0 0 0 0 0 127 0"/><feOffset dy="1"/><feGaussianBlur stdDeviation="1"/><feColorMatrix type="matrix" values="0 0 0 0 0.0117647 0 0 0 0 0.0705882 0 0 0 0 0.101961 0 0 0 0.2 0"/><feBlend in2="BackgroundImageFix" mode="normal" result="effect1_dropShadow_3063_33806"/><feBlend in="SourceGraphic" in2="effect1_dropShadow_3063_33806" mode="normal" result="shape"/></filter></defs></svg>