<svg xmlns="http://www.w3.org/2000/svg" width="33" height="36" fill="none" viewBox="0 0 33 36"><g filter="url(#filter0_d_3063_33829)"><path fill="#85D6FF" d="M13.806 1.753a5.194 5.194 0 0 1 5.388 0l8.612 5.189c1.667 1.004 2.694 2.86 2.694 4.87v10.376c0 2.01-1.027 3.866-2.694 4.87l-8.612 5.189a5.195 5.195 0 0 1-5.388 0l-8.612-5.189c-1.667-1.004-2.694-2.86-2.694-4.87V11.812c0-2.01 1.027-3.866 2.694-4.87l8.612-5.189Z"/><path fill="#1BA0E2" d="M11.25 29c9.182 0 16.625-8.507 16.625-19 0-1.074-.078-2.128-.228-3.154l.159.096c1.667 1.004 2.694 2.86 2.694 4.87v10.376c0 2.01-1.027 3.866-2.694 4.87l-8.612 5.189a5.195 5.195 0 0 1-5.388 0l-6.112-3.683C8.84 28.85 10.03 29 11.25 29Z"/><path fill="#FCA000" d="M23.649 14.988h-1.472v6.79h1.472c1.922-.06 3.424-1.617 3.363-3.498-.06-1.793-1.531-3.233-3.363-3.292Z"/><path fill="#FC0" d="M22.147 21.748c1.908 0 3.454-1.513 3.454-3.38s-1.546-3.38-3.454-3.38c-1.907 0-3.454 1.513-3.454 3.38s1.547 3.38 3.454 3.38Z"/><path stroke="#FAA500" stroke-linecap="round" stroke-linejoin="round" stroke-width=".75" d="M21.508 19.235v-1.052c0-.36.292-.652.652-.652h.014c.353 0 .639.286.639.639v.095c0 .3-.244.544-.544.544v0m1.74-.426c0 1-.828 1.81-1.849 1.81-1.02 0-1.849-.81-1.849-1.81s.828-1.81 1.85-1.81c1.02 0 1.848.81 1.848 1.81Z"/><path fill="#FCA000" d="M12.432 16.129h-2.187v9.87h2.187c2.883-.07 5.145-2.36 5.046-5.076-.075-2.621-2.287-4.723-5.046-4.794Z"/><path fill="#FC0" d="M10.195 26c2.87 0 5.195-2.21 5.195-4.936 0-2.725-2.326-4.935-5.195-4.935-2.87 0-5.195 2.21-5.195 4.935C5 23.79 7.326 26 10.195 26Z"/><path stroke="#FAA500" stroke-linecap="round" stroke-linejoin="round" stroke-width=".75" d="M9.186 22.219v-1.57c0-.538.436-.974.975-.974h.02c.527 0 .954.427.954.954v.142a.812.812 0 0 1-.812.812v0m2.598-.636c0 1.493-1.236 2.703-2.76 2.703-1.525 0-2.76-1.21-2.76-2.703 0-1.493 1.235-2.703 2.76-2.703 1.524 0 2.76 1.21 2.76 2.703Z"/><path fill="#FCA000" d="M17.587 7h-1.704v7.866h1.704c2.227-.068 3.967-1.873 3.897-4.052-.07-2.077-1.774-3.746-3.897-3.814Z"/><path fill="#FC0" d="M15.848 14.832c2.21 0 4-1.754 4-3.916 0-2.163-1.79-3.916-4-3.916s-4.001 1.753-4.001 3.916c0 2.162 1.791 3.916 4 3.916Z"/><path stroke="#FAA500" stroke-linecap="round" stroke-linejoin="round" stroke-width=".75" d="M15.107 11.92v-1.218c0-.418.338-.756.756-.756h.016a.74.74 0 0 1 .74.74v.11a.63.63 0 0 1-.63.63v0m2.016-.493c0 1.158-.959 2.098-2.142 2.098-1.183 0-2.142-.94-2.142-2.098s.959-2.098 2.142-2.098c1.183 0 2.142.94 2.142 2.098Z"/></g><defs><filter id="filter0_d_3063_33829" width="32" height="36" x=".5" y="0" color-interpolation-filters="sRGB" filterUnits="userSpaceOnUse"><feFlood flood-opacity="0" result="BackgroundImageFix"/><feColorMatrix in="SourceAlpha" result="hardAlpha" type="matrix" values="0 0 0 0 0 0 0 0 0 0 0 0 0 0 0 0 0 0 127 0"/><feOffset dy="1"/><feGaussianBlur stdDeviation="1"/><feColorMatrix type="matrix" values="0 0 0 0 0.0117647 0 0 0 0 0.0705882 0 0 0 0 0.101961 0 0 0 0.2 0"/><feBlend in2="BackgroundImageFix" mode="normal" result="effect1_dropShadow_3063_33829"/><feBlend in="SourceGraphic" in2="effect1_dropShadow_3063_33829" mode="normal" result="shape"/></filter></defs></svg>